<svg xmlns="http://www.w3.org/2000/svg" version="1.1" xmlns:xlink="http://www.w3.org/1999/xlink" xmlns:svgjs="http://svgjs.dev/svgjs" width="1000" height="1125" viewBox="0 0 1000 1125"><g transform="matrix(1,0,0,1,1.7053025658242404e-13,0)"><svg viewBox="0 0 320 360" data-background-color="#ffffff" preserveAspectRatio="xMidYMid meet" height="1125" width="1000" xmlns="http://www.w3.org/2000/svg" xmlns:xlink="http://www.w3.org/1999/xlink"><g id="tight-bounds" transform="matrix(1,0,0,1,0,0)"><svg viewBox="0 0 320 360" height="360" width="320"><g><svg></svg></g><g><svg viewBox="0 0 320 360" height="360" width="320"><g><path xmlns="http://www.w3.org/2000/svg" d="M20.961 227.22l3.726 4.658-1.863-6.056c-0.466-2.795-3.726 0.466-1.863 1.398M25.153 224.425c1.397 2.329 2.795 4.658 2.795 6.987 0 3.261 2.795 4.658 5.123 5.589-3.261-3.726-5.124-13.974-7.918-12.576M204.017 26.929c7.918 0 15.371-0.932 23.756 0.931 20.495 5.124 37.729 15.371 49.374 29.811l32.606 52.169c1.397 13.042 4.192 27.482 3.726 43.319 3.261 0 2.795-4.658 6.521-5.59-3.726 9.316-5.59 20.961-6.521 34.469-2.329-7.453 0-18.632 0.466-24.687-3.261 5.124-5.124 1.397-5.124-0.932 0.466-3.726-1.397-3.261-2.795-4.658-5.124-4.658-8.384-9.782-12.11-17.7 2.329-6.055 2.795-14.905-4.658-19.563-2.329-1.397-5.124-3.726-6.521-7.453-1.863-5.124-5.124-11.179-4.193-19.097 0.466-2.329-6.987 5.124-11.179 1.863-18.166-12.576-36.332-27.016-58.224-39.127-11.645 0-20.029-4.192-24.221-9.316-3.726-4.658-0.932-10.713 4.658-11.179 3.261 0 6.987-0.932 9.782 0.932 0.466-1.863 2.329-4.192 4.657-4.192M157.904 16.215l0.932 0.466c4.658 0.932 6.987 7.453 12.11 5.124 0 3.261 0.466 6.521-0.466 8.85-1.397 3.726-5.59 3.726-8.85 3.726-31.208-1.863-49.374 11.179-68.471 22.358-5.124 3.261-10.713 5.59-14.906 9.782-20.029 18.632-41.921 35.866-47.045 70.335l-4.192 38.195c-0.466 4.192-5.124 8.384-4.192 13.508l3.26 22.824c-3.261-3.261-5.124 0.932-4.192 2.795 0.466 1.397 2.329 6.055 5.124 1.863 3.726 6.987 7.453 20.495 12.576 26.55 15.837 18.632 36.332 35.4 53.101 52.169 4.192-0.932 7.453-0.932 8.384-3.727 1.397 2.795-1.397 5.59-3.726 6.056 7.453 4.658 15.837 8.85 27.016 9.781 14.44 0.932 27.948 3.261 40.524 6.522 6.521-1.863 13.042-2.795 20.029-3.261 2.329 0 3.726-3.726 6.521-4.658l0.466-4.658c2.795 4.192 2.329-1.397 0.466-4.192 3.261 2.795 4.192 5.124 5.589 6.987 0-1.397 3.726-6.521 3.727-0.466l0.931-6.055c1.397-0.932 1.863 5.124 3.261 0.931 1.397-4.192 4.192-0.932 6.987-2.329-0.932 1.863-0.466 5.59 2.794 3.261l3.727-3.261c2.329 5.59 6.055 3.261 7.918 2.329 20.495-13.042 40.99-28.413 60.553-43.784l-0.466 6.055 2.329-7.453c2.329 2.329 4.192 0.466 5.124-0.931 2.795-4.658 6.521-9.316 12.577-13.508-7.453 20.029-16.303 35.866-27.482 48.908l-4.658 5.59c0 3.261-0.932 7.453-4.658 7.918-1.863 0.466-5.59-0.932-8.384 1.863-1.397 1.863 3.261 5.59-0.466 2.795-3.261-2.329-6.521 0-10.248 0.932-2.795 0.932 1.863 3.726 2.795 5.589 0.932 1.863 1.863 3.726 1.398 6.056l-5.124-5.59c-6.055 3.261-9.782 9.316-14.906 13.974-2.329 1.863-1.397 5.124-1.397 7.918-3.261 0-6.987-0.932-8.85 0.932-1.397 1.863-0.932 4.658-0.932 7.453-4.658-0.466-5.124-7.453-9.315-6.056-4.192 0.932-8.85 1.397-12.577 3.727 2.795 5.59-4.658 2.329-3.726 3.26-6.987-4.192-13.042-7.453-20.495-4.658-15.837-5.124-35.4-2.795-49.84-0.931 0-2.329 0.466-4.658-0.466-5.124-0.932 2.329-3.726 1.397-3.26 1.397-8.85-6.055-17.7-9.782-27.016-14.905-8.384 0.932-16.303-3.261-18.632-5.59-6.521-6.055-13.974-2.795-20.029-4.192-13.042-3.261-17.7-16.769-19.098-26.084-0.932-4.658-4.658-6.521-6.055-6.056-6.055-19.563-15.371-37.263-22.824-55.429-1.863-4.658-1.397-9.316-1.397-14.44 2.329 0.932 4.658 0.466 4.192-2.794-2.329-15.371-7.918-27.016-13.974-38.195 3.261-15.837 3.726-34.469 11.179-48.443 6.521-12.576 18.632-19.098 27.016-29.811 2.795-3.726 2.795-8.85 5.59-12.11 9.316-9.316 18.632-19.098 28.879-27.482 4.658-3.726 10.247 0 17.234-1.397 2.329-8.384 11.645-15.837 20.495-13.508 3.726 0.932 11.179-8.85 13.508-9.782 3.726-1.397 1.863 3.726 1.863 6.987 8.85-6.987 20.961-10.713 32.14-14.906" fill="#9b4a74" fill-rule="nonzero" stroke="none" stroke-width="1" stroke-linecap="butt" stroke-linejoin="miter" stroke-miterlimit="10" stroke-dasharray="" stroke-dashoffset="0" font-family="none" font-weight="none" font-size="none" text-anchor="none" style="mix-blend-mode: normal" data-fill-palette-color="tertiary"></path></g><g transform="matrix(1,0,0,1,64,119.14129020261032)"><svg viewBox="0 0 192 121.71741959477937" height="121.71741959477937" width="192"><g><svg viewBox="0 0 192 121.71741959477937" height="121.71741959477937" width="192"><g><svg viewBox="0 0 192 121.71741959477937" height="121.71741959477937" width="192"><g transform="matrix(1,0,0,1,0,73.56825862523307)"><svg viewBox="0 0 192 48.1491609695463" height="48.1491609695463" width="192"><g id="textblocktransform"><svg viewBox="0 0 192 48.1491609695463" height="48.1491609695463" width="192" id="textblock"><g><svg viewBox="0 0 192 48.1491609695463" height="48.1491609695463" width="192"><g transform="matrix(1,0,0,1,0,0)"><svg width="192" viewBox="3.5 -36 160.88999938964844 40.349998474121094" height="48.1491609695463" data-palette-color="#dc2383"><path d="M9.55 4.35L9.55 4.35Q7.8 4.35 6.23 3.88 4.65 3.4 3.5 1.85L3.5 1.85Q3.65 0.65 4.23-1.65 4.8-3.95 5.65-6.88 6.5-9.8 7.45-12.9 8.4-16 9.33-18.82 10.25-21.65 10.98-23.78 11.7-25.9 12.05-26.85L12.05-26.85Q12.2-27.25 12.55-28.05 12.9-28.85 13.45-29.7 14-30.55 14.73-31.13 15.45-31.7 16.3-31.7L16.3-31.7Q17.15-31.7 18.2-31L18.2-31Q16.65-27.5 15.08-23.23 13.5-18.95 12.08-14.43 10.65-9.9 9.47-5.63 8.3-1.35 7.55 2.2L7.55 2.2Q7.95 2.35 8.68 2.43 9.4 2.5 10.05 2.5L10.05 2.5Q13.3 2.5 16.25 0.93 19.2-0.65 21.68-3.28 24.15-5.9 26-9.18 27.85-12.45 28.85-15.9 29.85-19.35 29.85-22.5L29.85-22.5Q29.85-26.55 28.48-29.08 27.1-31.6 24.7-32.77 22.3-33.95 19.2-33.95L19.2-33.95Q15.95-33.95 13.35-32.77 10.75-31.6 9.28-29.58 7.8-27.55 7.8-24.95L7.8-24.95Q7.8-24.4 7.9-23.78 8-23.15 8.25-22.55L8.25-22.55Q6.1-22.55 5.18-23.48 4.25-24.4 4.25-25.75L4.25-25.75Q4.25-27.5 5.53-29.3 6.8-31.1 9.08-32.63 11.35-34.15 14.35-35.08 17.35-36 20.85-36L20.85-36Q25.75-36 28.7-34.13 31.65-32.25 32.98-29.08 34.3-25.9 34.3-22L34.3-22Q34.3-17.7 32.93-13.78 31.55-9.85 29.13-6.55 26.7-3.25 23.53-0.8 20.35 1.65 16.78 3 13.2 4.35 9.55 4.35ZM43.1 1.3L43.1 1.3Q41.25 1.3 40.1 0.33 38.95-0.65 38.95-2.3L38.95-2.3Q38.95-3.7 39.65-5.3 40.35-6.9 41.07-8.45 41.8-10 41.8-11.2L41.8-11.2Q41.8-12.35 41.05-13.13 40.3-13.9 39.3-14.4L39.3-14.4Q38.2-11.65 36.82-9.08 35.45-6.5 34.6-5.05L34.6-5.05 33.85-6.5Q34.55-7.8 35.7-10.2 36.85-12.6 37.9-15.55L37.9-15.55Q37.4-16.05 37.4-16.9L37.4-16.9Q37.4-18.2 38.2-19.35 39-20.5 39.75-20.5L39.75-20.5Q40.35-20.5 40.62-19.83 40.9-19.15 40.9-18.9L40.9-18.9Q40.9-18.65 40.67-18 40.45-17.35 40.35-17.05L40.35-17.05Q40.4-16.5 41.22-15.98 42.05-15.45 43.1-14.75 44.15-14.05 44.95-13 45.75-11.95 45.75-10.35L45.75-10.35Q45.75-8.9 45.1-7.4 44.45-5.9 43.8-4.6 43.15-3.3 43.15-2.35L43.15-2.35Q43.15-1.65 43.52-1.43 43.9-1.2 44.4-1.2L44.4-1.2Q45.6-1.2 46.9-1.93 48.2-2.65 49.45-3.8 50.7-4.95 51.65-6.23 52.6-7.5 53.1-8.55L53.1-8.55 54.3-7.65Q53.35-5.5 51.55-3.43 49.75-1.35 47.55-0.03 45.35 1.3 43.1 1.3ZM55.6 0.5L55.6 0.5Q54.4 0.5 53.9-0.13 53.4-0.75 53.4-1.4L53.4-1.4Q53.4-1.95 53.9-2.58 54.4-3.2 55.15-3.63 55.9-4.05 56.55-4.05L56.55-4.05Q57.1-4.05 57.65-3.73 58.2-3.4 58.2-2.5L58.2-2.5Q58.2-2.1 57.9-1.38 57.6-0.65 57.02-0.08 56.45 0.5 55.6 0.5ZM69.29 4.3L69.29 4.3Q67.99 4.3 66.57 3.83 65.14 3.35 64.17 1.9 63.19 0.45 63.19-2.45L63.19-2.45Q63.19-4.45 63.67-6.43 64.14-8.4 65.04-9.73 65.94-11.05 67.29-11.05L67.29-11.05Q67.99-11.05 69.24-10.5L69.24-10.5Q68.29-8.15 67.82-6.1 67.34-4.05 67.34-2.45L67.34-2.45Q67.34-0.45 68.19 0.7 69.04 1.85 70.44 1.85L70.44 1.85Q71.64 1.85 72.67 0.78 73.69-0.3 74.69-3.05L74.69-3.05Q75.44-5.2 76.29-8.22 77.14-11.25 77.99-14.65 78.84-18.05 79.59-21.45 80.34-24.85 80.94-27.78 81.54-30.7 81.89-32.7L81.89-32.7Q79.49-32.65 77.67-32.52 75.84-32.4 74.32-32.15 72.79-31.9 71.19-31.55L71.19-31.55Q71.54-33.9 73.69-34.9 75.84-35.9 80.19-35.9L80.19-35.9Q82.29-35.9 84.54-35.7 86.79-35.5 88.72-35.25 90.64-35 91.69-34.8L91.69-34.8Q90.89-33.45 89.47-33.1 88.04-32.75 87.14-32.75L87.14-32.75Q86.34-32.75 85.49-32.73 84.64-32.7 84.24-32.7L84.24-32.7Q84.59-32.25 84.74-31.73 84.89-31.2 84.89-30.75L84.89-30.75Q84.89-30.1 84.54-27.93 84.19-25.75 83.57-22.63 82.94-19.5 82.09-16 81.24-12.5 80.22-9.15 79.19-5.8 77.99-3.15L77.99-3.15Q76.64-0.25 75.24 1.38 73.84 3 72.34 3.65 70.84 4.3 69.29 4.3ZM87.64 2.35L87.64 2.35Q85.99 2.35 84.77 1.25 83.54 0.15 83.54-2.05L83.54-2.05Q83.54-3.8 84.34-5.85 85.14-7.9 86.54-9.9 87.94-11.9 89.74-13.53 91.54-15.15 93.59-16.15 95.64-17.15 97.69-17.15L97.69-17.15Q99.84-17.15 101.34-16.05 102.84-14.95 102.84-13.15L102.84-13.15Q102.84-11.8 101.89-11.2 100.94-10.6 99.64-10.85L99.64-10.85Q99.74-11.3 99.81-11.75 99.89-12.2 99.89-12.7L99.89-12.7Q99.89-13.7 99.49-14.5 99.09-15.3 97.79-15.3L97.79-15.3Q96.39-15.3 94.94-14.35 93.49-13.4 92.17-11.88 90.84-10.35 89.79-8.53 88.74-6.7 88.14-4.95 87.54-3.2 87.54-1.8L87.54-1.8Q87.54-0.2 88.69-0.2L88.69-0.2Q89.84-0.2 91.24-1.33 92.64-2.45 94.06-4.15 95.49-5.85 96.79-7.63 98.09-9.4 99.04-10.65L99.04-10.65Q99.19-10.9 99.44-10.9L99.44-10.9Q99.64-10.85 100.22-10.68 100.79-10.5 101.29-10.15 101.79-9.8 101.79-9.25L101.79-9.25Q101.79-8.75 101.37-7.98 100.94-7.2 100.37-6.28 99.79-5.35 99.37-4.42 98.94-3.5 98.94-2.65L98.94-2.65Q98.94-2 99.29-1.43 99.64-0.85 100.44-0.85L100.44-0.85Q101.64-0.85 103.81-2.63 105.99-4.4 108.24-8.65L108.24-8.65 109.19-7.7Q107.99-5 106.31-2.93 104.64-0.85 102.79 0.33 100.94 1.5 99.04 1.5L99.04 1.5Q96.99 1.5 95.99 0.2 94.99-1.1 94.89-2.6L94.89-2.6Q94.89-2.7 94.89-2.75 94.89-2.8 94.89-2.85L94.89-2.85Q92.89-0.45 91.22 0.95 89.54 2.35 87.64 2.35ZM133.19 1.55L133.19 1.55Q131.24 1.55 130.29 0.4 129.34-0.75 129.34-2.35L129.34-2.35Q129.34-3.5 129.69-4.65 130.04-5.8 130.39-6.93 130.74-8.05 130.74-8.95L130.74-8.95Q130.74-9.8 130.41-10.13 130.09-10.45 129.59-10.45L129.59-10.45Q128.44-10.45 126.91-8.7 125.39-6.95 123.14-3.6L123.14-3.6Q122.34-2.4 121.64-1.07 120.94 0.25 120.39 1.15L120.39 1.15Q119.94 1.15 119.21 1 118.49 0.85 117.94 0.58 117.39 0.3 117.39-0.15L117.39-0.15Q117.39-0.6 117.89-1.9 118.39-3.2 119.04-4.93 119.69-6.65 120.19-8.33 120.69-10 120.69-11.15L120.69-11.15Q120.69-11.85 120.44-12.25 120.19-12.65 119.64-12.65L119.64-12.65Q118.59-12.65 117.11-11.4 115.64-10.15 114.01-8.13 112.39-6.1 110.96-3.63 109.54-1.15 108.64 1.35L108.64 1.35Q108.09 1.35 107.29 1.13 106.49 0.9 105.89 0.58 105.29 0.25 105.29 0L105.29 0Q105.29-0.05 105.64-1.43 105.99-2.8 106.49-4.85 106.99-6.9 107.54-9.05 108.09-11.2 108.49-12.8L108.49-12.8Q108.64-13.35 109.59-13.78 110.54-14.2 111.24-14.2L111.24-14.2Q111.94-14.2 112.44-13.75 112.94-13.3 112.94-12.55L112.94-12.55Q112.94-12.05 112.74-11.1 112.54-10.15 112.24-8.95L112.24-8.95Q113.29-10.35 114.46-11.73 115.64-13.1 116.91-14.2 118.19-15.3 119.46-15.95 120.74-16.6 121.99-16.6L121.99-16.6Q123.84-16.6 124.49-15.28 125.14-13.95 125.14-12.4L125.14-12.4Q125.14-11.75 125.04-11.13 124.94-10.5 124.76-9.88 124.59-9.25 124.29-8.4L124.29-8.4Q125.24-9.8 126.36-10.98 127.49-12.15 128.79-12.85 130.09-13.55 131.54-13.55L131.54-13.55Q133.49-13.55 134.24-12.38 134.99-11.2 134.99-9.8L134.99-9.8Q134.99-8.5 134.56-7.08 134.14-5.65 133.71-4.38 133.29-3.1 133.29-2.2L133.29-2.2Q133.29-1.7 133.54-1.28 133.79-0.85 134.54-0.85L134.54-0.85Q135.89-0.85 137.14-2.1 138.39-3.35 139.46-5.18 140.54-7 141.29-8.65L141.29-8.65 142.14-7.6Q141.34-5.55 140.06-3.43 138.79-1.3 137.09 0.13 135.39 1.55 133.19 1.55ZM142.84 2.35L142.84 2.35Q141.19 2.35 139.96 1.25 138.74 0.15 138.74-2.05L138.74-2.05Q138.74-3.8 139.54-5.85 140.34-7.9 141.74-9.9 143.14-11.9 144.94-13.53 146.74-15.15 148.79-16.15 150.84-17.15 152.89-17.15L152.89-17.15Q155.04-17.15 156.54-16.05 158.04-14.95 158.04-13.15L158.04-13.15Q158.04-11.8 157.09-11.2 156.14-10.6 154.84-10.85L154.84-10.85Q154.94-11.3 155.01-11.75 155.09-12.2 155.09-12.7L155.09-12.7Q155.09-13.7 154.69-14.5 154.29-15.3 152.99-15.3L152.99-15.3Q151.59-15.3 150.14-14.35 148.69-13.4 147.36-11.88 146.04-10.35 144.99-8.53 143.94-6.7 143.34-4.95 142.74-3.2 142.74-1.8L142.74-1.8Q142.74-0.2 143.89-0.2L143.89-0.2Q145.04-0.2 146.44-1.33 147.84-2.45 149.26-4.15 150.69-5.85 151.99-7.63 153.29-9.4 154.24-10.65L154.24-10.65Q154.39-10.9 154.64-10.9L154.64-10.9Q154.84-10.85 155.41-10.68 155.99-10.5 156.49-10.15 156.99-9.8 156.99-9.25L156.99-9.25Q156.99-8.75 156.56-7.98 156.14-7.2 155.56-6.28 154.99-5.35 154.56-4.42 154.14-3.5 154.14-2.65L154.14-2.65Q154.14-2 154.49-1.43 154.84-0.85 155.64-0.85L155.64-0.85Q156.84-0.85 159.01-2.63 161.19-4.4 163.44-8.65L163.44-8.65 164.39-7.7Q163.19-5 161.51-2.93 159.84-0.85 157.99 0.33 156.14 1.5 154.24 1.5L154.24 1.5Q152.19 1.5 151.19 0.2 150.19-1.1 150.09-2.6L150.09-2.6Q150.09-2.7 150.09-2.75 150.09-2.8 150.09-2.85L150.09-2.85Q148.09-0.45 146.41 0.95 144.74 2.35 142.84 2.35Z" opacity="1" transform="matrix(1,0,0,1,0,0)" fill="#dc2383" class="wordmark-text-0" data-fill-palette-color="primary" id="text-0"></path></svg></g></svg></g></svg></g></svg></g><g transform="matrix(1,0,0,1,68.87152335986733,0)"><svg viewBox="0 0 54.256953280265336 66.542140459913" height="66.542140459913" width="54.256953280265336"><g><svg xmlns="http://www.w3.org/2000/svg" xmlns:xlink="http://www.w3.org/1999/xlink" version="1.1" x="0" y="0" viewBox="13.512001037597656 5.428982734680176 72.95099639892578 89.46900177001953" enable-background="new 0 0 100 100" xml:space="preserve" height="66.542140459913" width="54.256953280265336" class="icon-icon-0" data-fill-palette-color="accent" id="icon-0"><path fill="#e56d90" d="M86.463 94.895h-9.509c-0.125-1.261-0.472-2.609-1.078-4.043-2.056-4.843-5.604-6.729-10.144-5.343-0.094-0.225-0.183-0.448-0.264-0.676-0.183-0.494-0.521-0.771-0.9-0.87-0.694-2.143-0.996-4.189-1.188-6.136-0.2-2.058-0.243-4.187-0.634-6.229 2.932 0.979 7.072 2.342 7.072 2.342 9.062 3.094 14.777 5.024 16.039 12.172C85.873 86.188 86.375 90.93 86.463 94.895zM49.981 58.077c-1.654-0.031-2.878-0.877-3.999-1.896-0.451-0.363-0.916-0.808-1.444-1.334-0.343-0.343-0.755-0.593-1.204-0.76-0.115-0.031-0.215-0.064-0.299-0.102-0.645-0.269-0.267-1.256 0.401-1.008l0.039 0.017 0.105 0.032c1.7 0.517 4.385-0.616 6.455 0.354 2.068-0.974 4.762 0.159 6.463-0.354l0.104-0.032 0.039-0.017c0.67-0.248 1.047 0.739 0.402 1.008-0.083 0.035-0.182 0.068-0.292 0.1-1.349 0.506-1.888 1.648-3.091 2.479-1.006 0.841-2.117 1.482-3.562 1.513H49.981zM46.969 55.618c0.688 0.474 1.598 0.812 3.08 0.819 1.473-0.008 2.379-0.349 3.066-0.819 0.438-0.382 0.854-0.795 1.257-1.191-1.61 0.13-3.438 0.162-4.28 0.166h-0.095c-0.85-0.004-2.677-0.036-4.287-0.166C46.112 54.823 46.526 55.239 46.969 55.618zM49.5 56.917c-0.279-0.041-0.469-0.051-0.738-0.151-0.396-0.152-0.624 0.441-0.229 0.594 0.342 0.131 0.534 0.139 0.875 0.188C49.828 57.609 49.921 56.979 49.5 56.917zM59.051 94.895h-6.398l5.541-19.106c-0.778-0.56-1.565-1.07-2.25-1.413-0.799-0.398-1.25-0.465-1.418-0.398l-0.073 0.022c-2.632 1.076-3.839 8.435-3.897 10.966 0.006 0.212-0.087 0.364-0.218 0.454-0.092 0.063-0.209 0.099-0.322 0.099-0.115 0-0.229-0.035-0.323-0.099-0.132-0.09-0.222-0.242-0.219-0.454-0.062-2.557-1.269-9.893-3.896-10.966l-0.074-0.022c-0.167-0.063-0.621 0-1.414 0.398-0.696 0.348-1.496 0.867-2.285 1.438l5.542 19.084H35.278c1.979-0.963 2.946-3.282 2.179-5.396-0.509-1.394-1.655-2.369-2.987-2.72-0.021-0.18-0.041-0.362-0.056-0.547-0.039-0.512-0.282-0.861-0.608-1.062-0.088-4.729 1.723-9.796 5.095-14.125l0.051-0.02 0.659-2.903c0.054-0.194 0.111-0.417 0.18-0.623 0.163-0.51 0.452-1.258 1.105-1.59L40.751 64.1c-0.025-0.291-0.189-1.896-0.219-2.175-0.078-0.594-0.165-1.153-0.269-1.674-0.239-0.155-0.434-0.289-0.571-0.385-0.334-0.245-0.654-0.509-0.957-0.789-1.873-1.744-3.412-4.468-5.354-9.896-2.183-0.605-4.061-2.412-5.251-4.55l0 0c-0.838-1.507-1.338-3.179-1.364-4.718-0.06-3.463 2.824-4.18 4.956-2.592-0.49-1.592-0.918-3.206-1.167-4.808-0.987-6.386-1.839-16.189 3.901-21.554 1.156-1.036 2.567-2.022 4.25-2.869 0.072-0.06 0.16-0.104 0.252-0.125C41.838 6.563 45.49 5.573 50 5.432c0 0 0.777-0.023 1.953 0.058 3.855 0.269 9.266 1.474 10.9 5.445 0.073 0 0.151 0.016 0.234 0.053 8.745 3.861 7.161 17.831 4.991 26.43 0.827-0.727 1.866-1.124 3.118-0.778 3.388 0.935 1.689 5.98 0.656 7.951-0.011 0.012-0.016 0.025-0.021 0.039h0.002c-1.091 2.059-2.95 3.917-5.236 4.555-1.543 4.312-2.859 7.854-6.047 10.42-0.275 0.207-0.533 0.389-0.768 0.549-0.178 0.875-0.312 1.88-0.422 2.947-0.045 0.446-0.092 0.883-0.103 1.021l-0.146 1.776c0.666 0.328 0.959 1.084 1.121 1.601 0.065 0.206 0.127 0.428 0.183 0.623l0.785 3.476 1.475 6.493c0.123 0.55-0.487 0.812-0.842 0.57 0.229 1.979 0.554 3.905 1.172 5.856-0.233 0.328-0.321 0.767-0.138 1.271 0.099 0.269 0.199 0.534 0.312 0.803C59.842 88.441 58.414 91.318 59.051 94.895zM68.555 28.147c-1.039 0.478-2.562 0.935-3.459 1.184l-0.047 0.01c0.396 1.768 0.99 3.369 1.688 5.1 0.22 0.533 0.402 1.052 0.533 1.623C67.791 33.815 68.311 31.031 68.555 28.147zM68.698 24.411c-1.589 0.712-3.032 1.489-4.274 2.284-0.598 0.383-1.146-0.394-0.714-0.813-0.435 0.419 0.116 1.197 0.685 0.832 0.197 0.372 0.32 0.804 0.396 1.274l0.048 0.292c1.032-0.29 3.003-0.886 3.786-1.39C68.691 26.054 68.709 25.229 68.698 24.411zM67.9 18.486c-1.752 2.059-3.349 4.296-4.687 6.641 0.246 0.18 0.466 0.394 0.657 0.637 1.38-0.88 3.004-1.74 4.787-2.517C68.568 21.581 68.336 19.966 67.9 18.486zM60.158 24.456c0.789-0.105 1.492-0.042 2.101 0.166 0.534-0.939 1.108-1.86 1.718-2.761 0.015-2.056 0.26-4.407 0.752-6.861 0.144-0.705 1.203-0.49 1.062 0.216-0.354 1.762-0.581 3.469-0.679 5.042 0.758-1.022 1.558-2.011 2.388-2.961-0.845-2.158-2.198-3.941-4.263-5.038 0.031 0.187 0.06 0.378 0.074 0.575 0.185 2.011 0.121 3.797-0.156 5.38-0.004 0.055-0.014 0.104-0.028 0.151C62.654 20.888 61.627 22.889 60.158 24.456zM39.838 8.746c0.334 0.539 0.941 1.46 1.783 2.519 1.352 1.704 3.287 3.738 5.657 5.132 0.105 0.064 0.18 0.143 0.224 0.229 3.188 2.154 6.186 4.813 7.982 7.464 0.242 0.119 0.477 0.242 0.699 0.368-1.883-4.688-6.32-10.026-10.146-13.05-0.566-0.447 0.104-1.295 0.67-0.848 4.276 3.381 9.207 9.463 10.875 14.583 0.013 0.032 0.019 0.062 0.021 0.092 2.271-1.572 3.853-3.851 4.455-7.074-0.383-2.319-1.363-5.099-3.092-8.223-0.348-0.63 0.6-1.154 0.947-0.522 1.062 1.926 1.861 3.741 2.419 5.418-0.007-0.607-0.04-1.241-0.099-1.9-0.226-2.44-1.969-4.026-4.195-5.012 1.127 3.994 1.25 8.043 1.016 10.738-0.062 0.718-1.14 0.624-1.078-0.094 0.25-2.869-0.033-8.487-1.221-11.133-2.283-0.743-4.834-0.974-6.726-0.918l-0.36 0.013c2.426 2.26 4.086 4.453 5.174 7.019 0.066 0.043 0.129 0.103 0.178 0.184 1.562 2.48 3.031 5.424 3.578 7.454 0.188 0.697-0.856 0.977-1.045 0.281-0.271-1.006-0.801-2.287-1.469-3.636 0.087 0.483 0.162 0.983 0.227 1.5 0.088 0.715-0.983 0.847-1.071 0.132-0.683-5.511-2.675-8.956-7.048-12.813C44.86 6.922 42.1 7.704 39.838 8.746zM33.142 14.333c1.747 1.291 4.177 2.577 7.021 3.643-2.63-1.361-4.886-2.894-6.546-4.394C33.451 13.827 33.292 14.077 33.142 14.333zM30.927 23.767c3.248 3.225 6.57 4.555 10.792 4.669 0.081 0.002 0.151 0.017 0.214 0.043 1.08-0.096 2.196-0.125 3.302-0.16-4.531-1.399-9.591-3.959-12.535-6.798-0.519-0.501 0.231-1.279 0.75-0.779 1.232 1.187 2.859 2.326 4.665 3.345 5.254-0.044 11.188 0.344 15.92 2.75 0.056 0.028 0.104 0.063 0.145 0.1 0.823-0.288 1.6-0.626 2.32-1.02-0.021-0.012-0.044-0.026-0.066-0.041-1.604-1.079-3.776-1.872-6.562-2.714-0.69-0.209-0.377-1.244 0.312-1.036 1.179 0.356 2.273 0.712 3.277 1.092-3.19-3.767-8.567-7.371-12.844-9.126-0.666-0.273-0.258-1.274 0.408-1 0.389 0.159 0.78 0.332 1.184 0.517-1.312-1.383-2.48-2.911-3.354-4.38-1.444 0.761-2.661 1.626-3.666 2.525-0.327 0.306-0.632 0.628-0.913 0.964 3.69 3.377 9.75 6.27 14.577 7.412 0.729 0.173 0.562 1.147-0.184 1.064-5.141-0.568-11.816-2.826-16.035-5.893C31.433 17.826 30.982 20.791 30.927 23.767zM40.205 25.177c2.888 1.391 6 2.447 8.579 2.916 1.375-0.153 2.679-0.381 3.899-0.701C48.901 25.718 44.407 25.25 40.205 25.177zM32.447 35.805c0.133-0.54 0.312-1.062 0.517-1.604-0.467-1.423-0.663-2.938-0.552-4.429 0.053-0.719 1.133-0.64 1.078 0.08-0.109 1.477 0.114 2.97 0.622 4.356 0.748-2.863 2.361-4.299 4.377-5.038-2.77-0.555-5.208-1.791-7.557-3.91 0.059 2.49 0.356 4.936 0.688 7.087C31.756 33.218 32.069 34.47 32.447 35.805zM47.06 62.604c0.866 0.527 1.948 0.496 2.926 0.506 2.221-0.021 2.057-0.088 3.659-0.928 2.258-1.182 4.979-2.139 6.863-3.896 1.701-1.584 3.189-4.146 5.17-9.743 0.106-0.302 1.77-0.854 2.072-1.032 1.086-0.639 2.07-1.677 2.833-2.88h-0.002c0.931-1.474 1.521-3.194 1.549-4.737 0.052-2.969-2.659-2.867-4.104-0.788-0.291 0.418-0.557 0.892-0.769 1.378-0.012 0.031-0.024 0.06-0.039 0.086-0.062 0.15-0.12 0.301-0.173 0.453-0.025 0.072-0.048 0.146-0.068 0.217-0.24 0.726-1.254 0.403-1.035-0.315l0.035-0.109c0.069-0.215 0.166-0.517 0.276-0.898 0.511-3.794-0.422-4.392-1.535-7.621-0.358-1.045-0.717-2.352-1.001-4.141-0.354-2.229-2.152-3.703-5.82-1.824-2.679 1.729-6.166 2.621-10.104 2.944-2.344 0.191-4.444 0.167-5.84 0.233-3.756 0.184-6.398 2.127-6.951 5.728-0.077 0.496-0.073 0.815-0.073 0.815 0.005 0.672-0.626 0.865-0.993 0.303 0 0-0.146-0.222-0.349-0.63-0.28 0.976-0.396 1.948-0.187 3.244 0.187 0.594 0.368 1.155 0.53 1.653l0.099 0.29c0.221 0.731-0.793 1.053-1.029 0.339l-0.036-0.114c-0.039-0.115-0.114-0.32-0.224-0.578-0.6-1.402-1.82-3.39-3.675-2.878-2.412 0.668-0.645 5.16 0.012 6.408 0.093 0.178 0.196 0.358 0.312 0.541h0.003c0.972 1.556 2.679 3.233 4.492 3.56 0.114 0.021 0.378 0.244 0.42 0.354 1.979 5.593 3.468 8.157 5.17 9.741C41.604 60.271 44.6 61.109 47.06 62.604zM39.998 82.907l-0.502-2.578-2.062 0.401 0.503 2.576-2.577 0.5 0.399 2.062 2.577-0.5 0.502 2.577 2.061-0.401-0.501-2.577 2.575-0.5-0.399-2.061L39.998 82.907zM44.277 73.105c-1.865-1.481-2.804-3.278-3.212-5.877-0.085 0.152-0.166 0.349-0.25 0.603-0.062 0.192-0.11 0.385-0.159 0.565l-0.777 3.438-1.123 4.962c0.578-0.47 1.31-1.055 2.082-1.624 0.906-0.666 1.891-1.328 2.766-1.768C43.82 73.297 44.047 73.191 44.277 73.105zM58.005 66.23c0.108-1.358 0.229-3.399 0.534-5.281-0.137 0.074-0.279 0.15-0.424 0.227-1.539 0.792-3.153 1.454-4.637 2.354-1.064 0.646-2.268 0.651-3.492 0.663-2.382-0.021-2.398-0.133-4.156-1.053-1.329-0.697-2.769-1.305-4.123-2.026l-0.214-0.117c0.299 1.864 0.423 3.885 0.525 5.233 0.359 3.354 1.421 5.191 4.031 6.797 2.052 0.873 3.314 4.383 3.963 7.561 0.646-3.178 1.909-6.688 3.963-7.561C56.588 71.424 57.65 69.585 58.005 66.23zM59.195 75.173c0.771 0.569 1.502 1.154 2.082 1.624l-1.123-4.962-0.775-3.438c-0.053-0.182-0.104-0.373-0.166-0.565-0.08-0.254-0.162-0.449-0.246-0.603-0.408 2.599-1.346 4.396-3.213 5.877 0.23 0.086 0.458 0.188 0.676 0.3C57.302 73.843 58.287 74.507 59.195 75.173zM29.286 92.475c-0.799-2.195 0.28-4.617 2.419-5.502-0.021-0.173-0.036-0.345-0.05-0.519-0.043-0.541 0.168-0.945 0.488-1.194-0.097-4.484 1.379-9.181 4.086-13.328-2.79 0.928-6.074 2.008-6.074 2.008-9.06 3.094-14.777 5.025-16.039 12.172-0.014 0.078-0.516 4.818-0.604 8.783h17.952C30.487 94.417 29.687 93.578 29.286 92.475zM66.12 86.377c0.662 1.624-1.772 2.732-2.55 1.079-2.973 1.674-4.195 4.207-3.562 7.438h16.007c-0.14-1.189-0.478-2.431-1.004-3.677C73.148 86.838 70.116 85.195 66.12 86.377zM67.998 44.631h-0.396C67.705 44.725 67.848 44.717 67.998 44.631zM35.55 90.191c-0.439-1.201-1.767-1.821-2.969-1.385-1.203 0.438-1.825 1.767-1.387 2.969 0.439 1.203 1.768 1.822 2.97 1.387C35.368 92.725 35.988 91.396 35.55 90.191zM46.862 49.149c-0.487 0.531 0.309 1.265 0.801 0.729 0.169-0.124 0.343-0.058 0.511 0.065 0.609 0.461 1.025 0.678 1.856 0.678 0.492 0 0.876-0.094 1.191-0.24 0.289-0.133 0.896-0.717 1.188-0.503 0.49 0.535 1.287-0.198 0.8-0.729 0 0-0.058-0.066-0.17-0.147-1.156-0.845-1.864 0.54-3.01 0.54-1.143 0-1.835-1.393-2.997-0.54C46.92 49.083 46.862 49.149 46.862 49.149zM53.557 38.155c1.609-1.079 5.762-2.749 9.455-1.663 1.161 0.341 1.53-0.305 0.48-0.898-1.242-0.705-2.521-1.065-4.113-1.128-2.395-0.095-4.673 0.643-6.629 1.955C51.617 37.182 52.423 38.916 53.557 38.155zM68.002 44.63c0.291-0.17 0.621-0.634 0.787-1.242 0.122-0.443 0.102-0.661 0.025-0.958 0.345-1.285 0.865-2.203 1.367-2.576 0.604-0.445 0.008-1.296-0.597-0.851-0.772 0.569-1.379 1.688-1.767 3.03-0.084 0.269-0.209 0.712-0.328 1.415-0.115 0.672-0.045 1.043 0.111 1.183L68.002 44.63zM43.842 40.818c0.037-0.556-0.209-1.061-0.62-1.377 1.23 0.323 2.108 1.06 2.398 1.842 0.259 0.712 1.327 0.315 1.064-0.394-0.567-1.527-2.338-2.596-4.348-2.737-1.291-0.09-2.509 0.215-3.42 0.822l-0.868-0.385c-0.66-0.294-1.096 0.694-0.438 0.987l0.433 0.192c-0.047 0.057-0.09 0.114-0.131 0.175l-0.976-0.281c-0.694-0.199-0.991 0.84-0.298 1.039l1.423 0.409c0.304 0.087 0.533-0.065 0.655-0.31 0.423-0.785 1.456-1.421 2.812-1.515-0.481 0.244-0.827 0.73-0.868 1.308-0.062 0.882 0.6 1.643 1.479 1.706C43.019 42.36 43.78 41.696 43.842 40.818zM37.02 36.492c3.694-1.086 7.851 0.584 9.455 1.663 1.135 0.761 1.941-0.972 0.809-1.734-1.958-1.311-4.234-2.05-6.63-1.955-1.592 0.063-2.871 0.423-4.113 1.128C35.492 36.187 35.861 36.833 37.02 36.492zM63.096 39.662l-0.973 0.281c-0.043-0.06-0.086-0.118-0.131-0.176l0.433-0.192c0.661-0.293 0.22-1.281-0.438-0.987l-0.866 0.385c-0.908-0.607-2.127-0.912-3.418-0.822-2.015 0.141-3.785 1.211-4.353 2.737-0.262 0.709 0.803 1.106 1.065 0.394 0.291-0.782 1.167-1.519 2.396-1.842-0.408 0.316-0.656 0.821-0.617 1.377 0.062 0.878 0.822 1.542 1.703 1.481 0.875-0.063 1.539-0.824 1.479-1.706-0.041-0.578-0.388-1.064-0.869-1.308 1.359 0.094 2.39 0.731 2.832 1.546 0.101 0.215 0.328 0.367 0.636 0.28l1.424-0.409C64.088 40.502 63.789 39.463 63.096 39.662zM32.215 42.032c-0.388-1.342-0.995-2.461-1.766-3.03-0.605-0.445-1.203 0.406-0.599 0.851 0.504 0.373 1.029 1.291 1.37 2.576-0.078 0.297-0.097 0.515 0.026 0.958 0.168 0.609 0.496 1.073 0.787 1.244h0.005c0.149 0.085 0.291 0.094 0.394 0h0.003c0.154-0.14 0.222-0.511 0.109-1.183C32.424 42.744 32.3 42.302 32.215 42.032z" data-fill-palette-color="accent"></path></svg></g></svg></g><g></g></svg></g></svg></g></svg></g></svg></g><defs></defs></svg><rect width="320" height="360" fill="none" stroke="none" visibility="hidden"></rect></g></svg></g></svg>