{
  "accessors": [
    {
      "bufferView": 2,
      "componentType": 5126,
      "count": 28179,
      "max": [
        1.4769437313079834,
        1.2197914123535156,
        1.5223495960235596
      ],
      "min": [
        -1.443547248840332,
        -1.0659420490264893,
        -1.576676607131958
      ],
      "type": "VEC3"
    },
    {
      "bufferView": 2,
      "byteOffset": 338148,
      "componentType": 5126,
      "count": 28179,
      "max": [
        0.9999712109565735,
        0.9999706149101257,
        0.9994703531265259
      ],
      "min": [
        -0.9992638826370239,
        -0.9999002814292908,
        -0.9992271661758423
      ],
      "type": "VEC3"
    },
    {
      "bufferView": 1,
      "componentType": 5126,
      "count": 28179,
      "max": [
        1.0,
        1.0
      ],
      "min": [
        0.0,
        0.0
      ],
      "type": "VEC2"
    },
    {
      "bufferView": 0,
      "componentType": 5125,
      "count": 28800,
      "type": "SCALAR"
    },
    {
      "bufferView": 2,
      "byteOffset": 676296,
      "componentType": 5126,
      "count": 65532,
      "max": [
        1.4990428686141968,
        1.2369637489318848,
        1.5444135665893555
      ],
      "min": [
        -1.4635851383209229,
        -1.0832605361938477,
        -1.5933825969696045
      ],
      "type": "VEC3"
    },
    {
      "bufferView": 2,
      "byteOffset": 1462680,
      "componentType": 5126,
      "count": 65532,
      "max": [
        0.9969350695610046,
        0.9999973177909851,
        0.9999918937683105
      ],
      "min": [
        -0.9931733012199402,
        -0.9999972581863403,
        -0.9999859929084778
      ],
      "type": "VEC3"
    },
    {
      "bufferView": 1,
      "byteOffset": 225432,
      "componentType": 5126,
      "count": 65532,
      "max": [
        0.9620289206504822,
        0.9748573303222656
      ],
      "min": [
        0.0,
        0.0
      ],
      "type": "VEC2"
    },
    {
      "bufferView": 0,
      "byteOffset": 115200,
      "componentType": 5125,
      "count": 301062,
      "type": "SCALAR"
    },
    {
      "bufferView": 2,
      "byteOffset": 2249064,
      "componentType": 5126,
      "count": 32669,
      "max": [
        1.4990428686141968,
        1.2372868061065674,
        0.9255707263946533
      ],
      "min": [
        -1.4659924507141113,
        -0.6956735253334045,
        -1.599048376083374
      ],
      "type": "VEC3"
    },
    {
      "bufferView": 2,
      "byteOffset": 2641092,
      "componentType": 5126,
      "count": 32669,
      "max": [
        0.9998977780342102,
        0.9999973177909851,
        0.998009443283081
      ],
      "min": [
        -0.9999022483825684,
        -0.9999972581863403,
        -0.9980417490005493
      ],
      "type": "VEC3"
    },
    {
      "bufferView": 1,
      "byteOffset": 749688,
      "componentType": 5126,
      "count": 32669,
      "max": [
        0.961658239364624,
        0.9576749801635742
      ],
      "min": [
        0.0,
        0.0
      ],
      "type": "VEC2"
    },
    {
      "bufferView": 0,
      "byteOffset": 1319448,
      "componentType": 5125,
      "count": 145338,
      "type": "SCALAR"
    },
    {
      "bufferView": 2,
      "byteOffset": 3033120,
      "componentType": 5126,
      "count": 4822,
      "max": [
        1.4982880353927612,
        1.2372868061065674,
        1.5444135665893555
      ],
      "min": [
        -1.4659924507141113,
        -1.0832018852233887,
        -1.599048376083374
      ],
      "type": "VEC3"
    },
    {
      "bufferView": 2,
      "byteOffset": 3090984,
      "componentType": 5126,
      "count": 4822,
      "max": [
        0.9525864720344543,
        0.9960466623306274,
        0.9884715676307678
      ],
      "min": [
        -0.9969070553779602,
        -0.9860662817955017,
        -0.9976726174354553
      ],
      "type": "VEC3"
    },
    {
      "bufferView": 1,
      "byteOffset": 1011040,
      "componentType": 5126,
      "count": 4822,
      "max": [
        0.9620289206504822,
        0.8244190216064453
      ],
      "min": [
        0.03863592445850372,
        0.0
      ],
      "type": "VEC2"
    },
    {
      "bufferView": 0,
      "byteOffset": 1900800,
      "componentType": 5125,
      "count": 14400,
      "type": "SCALAR"
    },
    {
      "bufferView": 3,
      "componentType": 5126,
      "count": 250,
      "max": [
        10.416666984558105
      ],
      "min": [
        0.0416666679084301
      ],
      "type": "SCALAR"
    },
    {
      "bufferView": 4,
      "componentType": 5126,
      "count": 250,
      "max": [
        1.0,
        0.4999605417251587,
        0.4999605417251587,
        1.0
      ],
      "min": [
        0.0,
        -0.49996066093444824,
        -0.49996066093444824,
        1.910685676922942e-15
      ],
      "type": "VEC4"
    },
    {
      "bufferView": 3,
      "byteOffset": 1000,
      "componentType": 5126,
      "count": 251,
      "max": [
        10.458333015441895
      ],
      "min": [
        0.0416666679084301
      ],
      "type": "SCALAR"
    },
    {
      "bufferView": 4,
      "byteOffset": 4000,
      "componentType": 5126,
      "count": 251,
      "max": [
        1.0,
        0.4999605417251587,
        0.4999605417251587,
        1.0
      ],
      "min": [
        0.0,
        -0.4999605417251587,
        -0.4999605417251587,
        1.910685676922942e-15
      ],
      "type": "VEC4"
    }
  ],
  "animations": [
    {
      "channels": [
        {
          "sampler": 0,
          "target": {
            "node": 3,
            "path": "rotation"
          }
        }
      ],
      "name": "Action",
      "samplers": [
        {
          "input": 16,
          "interpolation": "LINEAR",
          "output": 17
        }
      ]
    },
    {
      "channels": [
        {
          "sampler": 0,
          "target": {
            "node": 3,
            "path": "rotation"
          }
        }
      ],
      "name": "BaseAction",
      "samplers": [
        {
          "input": 18,
          "interpolation": "LINEAR",
          "output": 19
        }
      ]
    }
  ],
  "asset": {
    "extras": {
      "author": "smice (https://sketchfab.com/smice)",
      "license": "CC-BY-4.0 (http://creativecommons.org/licenses/by/4.0/)",
      "source": "https://sketchfab.com/3d-models/spiky-trefoil-knot-variation-dc8b1dadb8f546119014a9ac3b3934df",
      "title": "Spiky trefoil knot variation"
    },
    "generator": "Sketchfab-15.27.0",
    "version": "2.0"
  },
  "bufferViews": [
    {
      "buffer": 0,
      "byteLength": 1958400,
      "name": "floatBufferViews",
      "target": 34963
    },
    {
      "buffer": 0,
      "byteLength": 1049616,
      "byteOffset": 1958400,
      "byteStride": 8,
      "name": "floatBufferViews",
      "target": 34962
    },
    {
      "buffer": 0,
      "byteLength": 3148848,
      "byteOffset": 3008016,
      "byteStride": 12,
      "name": "floatBufferViews",
      "target": 34962
    },
    {
      "buffer": 0,
      "byteLength": 2004,
      "byteOffset": 6156864,
      "name": "floatBufferViews"
    },
    {
      "buffer": 0,
      "byteLength": 8016,
      "byteOffset": 6158868,
      "byteStride": 16,
      "name": "floatBufferViews"
    }
  ],
  "buffers": [
    {
      "byteLength": 6166884,
      "uri": "scene.bin"
    }
  ],
  "extensionsUsed": [
    "KHR_materials_clearcoat",
    "KHR_materials_emissive_strength"
  ],
  "images": [
    {
      "uri": "textures/iris_baseColor.jpeg"
    }
  ],
  "materials": [
    {
      "doubleSided": true,
      "extensions": {
        "KHR_materials_clearcoat": {
          "clearcoatFactor": 1.0,
          "clearcoatRoughnessFactor": 0.04
        }
      },
      "name": "spikes",
      "pbrMetallicRoughness": {
        "baseColorFactor": [
          0.00683385,
          0.8,
          0.71084,
          1.0
        ],
        "metallicFactor": 0.661538,
        "roughnessFactor": 0.105128
      }
    },
    {
      "doubleSided": true,
      "name": "iris",
      "pbrMetallicRoughness": {
        "baseColorTexture": {
          "index": 0
        },
        "metallicFactor": 0.9136372379303712,
        "roughnessFactor": 0.08597224407957241
      }
    },
    {
      "doubleSided": true,
      "emissiveFactor": [
        1.0,
        1.0,
        1.0
      ],
      "extensions": {
        "KHR_materials_emissive_strength": {
          "emissiveStrength": 1.5591576468668218
        }
      },
      "name": "stripe",
      "pbrMetallicRoughness": {
        "roughnessFactor": 0.48231886085319436
      }
    }
  ],
  "meshes": [
    {
      "name": "Object_0",
      "primitives": [
        {
          "attributes": {
            "NORMAL": 1,
            "POSITION": 0,
            "TEXCOORD_0": 2
          },
          "indices": 3,
          "material": 0,
          "mode": 4
        }
      ]
    },
    {
      "name": "Object_1",
      "primitives": [
        {
          "attributes": {
            "NORMAL": 5,
            "POSITION": 4,
            "TEXCOORD_0": 6
          },
          "indices": 7,
          "material": 1,
          "mode": 4
        }
      ]
    },
    {
      "name": "Object_2",
      "primitives": [
        {
          "attributes": {
            "NORMAL": 9,
            "POSITION": 8,
            "TEXCOORD_0": 10
          },
          "indices": 11,
          "material": 1,
          "mode": 4
        }
      ]
    },
    {
      "name": "Object_3",
      "primitives": [
        {
          "attributes": {
            "NORMAL": 13,
            "POSITION": 12,
            "TEXCOORD_0": 14
          },
          "indices": 15,
          "material": 2,
          "mode": 4
        }
      ]
    }
  ],
  "nodes": [
    {
      "children": [
        1
      ],
      "matrix": [
        1.0,
        0.0,
        0.0,
        0.0,
        0.0,
        2.220446049250313e-16,
        -1.0,
        0.0,
        0.0,
        1.0,
        2.220446049250313e-16,
        0.0,
        0.0,
        0.0,
        0.0,
        1.0
      ],
      "name": "Sketchfab_model"
    },
    {
      "children": [
        2
      ],
      "name": "root"
    },
    {
      "children": [
        3
      ],
      "matrix": [
        1.0,
        0.0,
        0.0,
        0.0,
        0.0,
        2.220446049250313e-16,
        1.0,
        0.0,
        0.0,
        -1.0,
        2.220446049250313e-16,
        0.0,
        0.0,
        0.0,
        0.0,
        1.0
      ],
      "name": "GLTF_SceneRootNode"
    },
    {
      "children": [
        4,
        5,
        6,
        7
      ],
      "name": "Base_0",
      "translation": [
        0.1551506519317627,
        0.8177054524421692,
        -3.2662909030914307
      ]
    },
    {
      "mesh": 0,
      "name": "Object_4"
    },
    {
      "mesh": 1,
      "name": "Object_5"
    },
    {
      "mesh": 2,
      "name": "Object_6"
    },
    {
      "mesh": 3,
      "name": "Object_7"
    }
  ],
  "samplers": [
    {
      "magFilter": 9729,
      "minFilter": 9987,
      "wrapS": 10497,
      "wrapT": 10497
    }
  ],
  "scene": 0,
  "scenes": [
    {
      "name": "Sketchfab_Scene",
      "nodes": [
        0
      ]
    }
  ],
  "textures": [
    {
      "sampler": 0,
      "source": 0
    }
  ]
}
